<svg id="Livello_1" data-name="Livello 1" xmlns="http://www.w3.org/2000/svg" xmlns:xlink="http://www.w3.org/1999/xlink" viewBox="0 0 19 28.35"><defs><style>.cls-1,.cls-3,.cls-4{fill:none;}.cls-2{clip-path:url(#clip-path);}.cls-3,.cls-4{stroke:#00b3b2;stroke-linejoin:round;}.cls-3{stroke-linecap:round;}</style><clipPath id="clip-path" transform="translate(-60.03 -849.85)"><rect class="cls-1" x="59.53" y="846.49" width="20" height="35.1"/></clipPath></defs><title>icon-green-1</title><g class="cls-2"><polygon class="cls-3" points="18.5 17.7 16.25 27.85 2.75 27.85 0.5 17.7 18.5 17.7"/><line class="cls-4" x1="0.52" y1="19.05" x2="18.75" y2="19.05"/><path class="cls-3" d="M69.15,856.18c0.33-3.46-2.12-5.64-5.78-5.83C63.09,853.26,65,856.54,69.15,856.18Zm0.43,3.56c-0.33-3.46,2.12-5.64,5.78-5.83C75.63,856.82,73.74,860.1,69.57,859.73Zm-0.43,3.56c0.33-3.46-2.12-5.64-5.78-5.83C63.09,860.38,65,863.65,69.15,863.29Zm0,1.75V852.7" transform="translate(-60.03 -849.85)"/></g></svg>