<svg id="Livello_1" data-name="Livello 1" xmlns="http://www.w3.org/2000/svg" xmlns:xlink="http://www.w3.org/1999/xlink" viewBox="0 0 21 21.68"><defs><style>.cls-1,.cls-3{fill:none;}.cls-2{clip-path:url(#clip-path);}.cls-3{stroke:#00b3b2;stroke-linecap:round;stroke-linejoin:round;}</style><clipPath id="clip-path" transform="translate(-282.67 -854.18)"><rect class="cls-1" x="282.17" y="853.28" width="22" height="23.46"/></clipPath></defs><title>icon-green-2</title><g class="cls-2"><path class="cls-3" d="M301.91,861.9l-2.65-.14-1.07,2.09m-12.36-3.92,0.86,2.42,2.65-.34m2.46,13.35,1.7-2.4-1.7-2.37m1.52,2.37h-6.77a3.59,3.59,0,0,1-2.93-1.86,3.46,3.46,0,0,1,0-3.43l2-3.87m1.46-2.06,3.16-5.39a3.41,3.41,0,0,1,5.87,0l2.36,4m0.82,1.39,3.47,5.91a3.58,3.58,0,0,1-3,5.29h-4.07" transform="translate(-282.67 -854.18)"/></g></svg>