<svg id="Livello_1" data-name="Livello 1" xmlns="http://www.w3.org/2000/svg" viewBox="0 0 16.3 12.88"><defs><style>.cls-1,.cls-3{fill:none;stroke:#fff;stroke-miterlimit:10;}.cls-1{stroke-width:0.5px;}.cls-2{fill:#282525;}.cls-4{fill:#fff;}</style></defs><title>icon-white-1</title><path class="cls-1" d="M185.4,1846.39l3.8-3.71m4.15,3.71-3.8-3.71m4.81,11.46H183.89l-1.93-6.59h14.33Zm2.14-6.65H181.86a0.57,0.57,0,0,1-.58-0.55,0.62,0.62,0,0,1,.74-0.55h14.65a0.56,0.56,0,0,1,.42.55A0.57,0.57,0,0,1,196.5,1847.49Z" transform="translate(-181.03 -1841.51)"/><path class="cls-2" d="M189.63,1842.24a0.24,0.24,0,1,1-.24-0.23,0.23,0.23,0,0,1,.24.23" transform="translate(-181.03 -1841.51)"/><ellipse class="cls-3" cx="8.36" cy="0.73" rx="0.24" ry="0.23"/><path class="cls-4" d="M187.19,1853h0a0.32,0.32,0,0,1-.34-0.14v-3.63a0.48,0.48,0,0,1,.67,0v3.63a0.32,0.32,0,0,1-.34.14" transform="translate(-181.03 -1841.51)"/><path class="cls-4" d="M189,1853h0a0.32,0.32,0,0,1-.34-0.14v-3.63a0.48,0.48,0,0,1,.67,0v3.63a0.32,0.32,0,0,1-.34.14" transform="translate(-181.03 -1841.51)"/><path class="cls-4" d="M190.9,1853h0a0.32,0.32,0,0,1-.34-0.14v-3.63a0.48,0.48,0,0,1,.67,0v3.63a0.32,0.32,0,0,1-.34.14" transform="translate(-181.03 -1841.51)"/></svg>