<svg id="Livello_1" data-name="Livello 1" xmlns="http://www.w3.org/2000/svg" xmlns:xlink="http://www.w3.org/1999/xlink" viewBox="0 0 24.34 23.99"><defs><style>.cls-1,.cls-4{fill:none;}.cls-2{clip-path:url(#clip-path);}.cls-3{fill:#00b2af;}.cls-4{stroke:#00b2af;stroke-miterlimit:10;stroke-width:0.25px;}</style><clipPath id="clip-path" transform="translate(-759.56 -852.86)"><rect class="cls-1" x="759.68" y="851.27" width="24.09" height="27.18"/></clipPath></defs><title>icon-green-4</title><g class="cls-2"><path class="cls-3" d="M770.13,872.8a18.2,18.2,0,0,0-5.39-5.18,0.4,0.4,0,0,0-.56.11,0.39,0.39,0,0,0,.11.55,16.81,16.81,0,0,1,5.46,5.44c-7,1.15-10.58-5.7-8.82-10.64a9.54,9.54,0,0,0,3.73,1.44,8.1,8.1,0,0,1,4.61,1.78,6.46,6.46,0,0,1,1.53,2.26,13.54,13.54,0,0,0-.68,4.24M783,862.33a0.4,0.4,0,0,0-.59-0.17A10.34,10.34,0,0,1,778,864c-2.16.35-4.08,0.76-5.74,2.31a5.67,5.67,0,0,0-1,1.31,7.15,7.15,0,0,0-1.42-1.89,8.84,8.84,0,0,0-5-2,9.08,9.08,0,0,1-3.83-1.58,0.41,0.41,0,0,0-.34-0.05,0.4,0.4,0,0,0-.26.22c-1.9,4.35.23,10.39,5.25,11.93a9.74,9.74,0,0,0,5,.08,0.4,0.4,0,0,0,.3-0.4,14.81,14.81,0,0,1,.67-5.22l0-.06a4.74,4.74,0,0,1,1.2-1.78c1.49-1.4,3.28-1.78,5.31-2.1a10.89,10.89,0,0,0,4.3-1.71c1.89,5.29-1.16,13.34-9.9,12.85a17.89,17.89,0,0,1,6-6.73,0.39,0.39,0,0,0,0-.7,0.41,0.41,0,0,0-.41,0,17.44,17.44,0,0,0-6.53,7.57,0.39,0.39,0,0,0,0,.35,0.4,0.4,0,0,0,.3.18,12.82,12.82,0,0,0,5.13-.51c5.68-1.78,8.13-8.76,6-13.82" transform="translate(-759.56 -852.86)"/><path class="cls-4" d="M770.13,872.8a18.2,18.2,0,0,0-5.39-5.18,0.4,0.4,0,0,0-.56.11,0.39,0.39,0,0,0,.11.55,16.81,16.81,0,0,1,5.46,5.44c-7,1.15-10.58-5.7-8.82-10.64a9.54,9.54,0,0,0,3.73,1.44,8.1,8.1,0,0,1,4.61,1.78,6.46,6.46,0,0,1,1.53,2.26A13.54,13.54,0,0,0,770.13,872.8ZM783,862.33a0.4,0.4,0,0,0-.59-0.17A10.34,10.34,0,0,1,778,864c-2.16.35-4.08,0.76-5.74,2.31a5.67,5.67,0,0,0-1,1.31,7.15,7.15,0,0,0-1.42-1.89,8.84,8.84,0,0,0-5-2,9.08,9.08,0,0,1-3.83-1.58,0.41,0.41,0,0,0-.34-0.05,0.4,0.4,0,0,0-.26.22c-1.9,4.35.23,10.39,5.25,11.93a9.74,9.74,0,0,0,5,.08,0.4,0.4,0,0,0,.3-0.4,14.81,14.81,0,0,1,.67-5.22l0-.06a4.74,4.74,0,0,1,1.2-1.78c1.49-1.4,3.28-1.78,5.31-2.1a10.89,10.89,0,0,0,4.3-1.71c1.89,5.29-1.16,13.34-9.9,12.85a17.89,17.89,0,0,1,6-6.73,0.39,0.39,0,0,0,0-.7,0.41,0.41,0,0,0-.41,0,17.44,17.44,0,0,0-6.53,7.57,0.39,0.39,0,0,0,0,.35,0.4,0.4,0,0,0,.3.18,12.82,12.82,0,0,0,5.13-.51C782.71,874.37,785.16,867.4,783,862.33Z" transform="translate(-759.56 -852.86)"/><path class="cls-3" d="M766.65,854.71a3.2,3.2,0,0,1,4.52,0l0.28,0.28a0.41,0.41,0,0,0,.57,0l0.29-.28a3.25,3.25,0,0,1,3.48-.65,3.15,3.15,0,0,1,1,5.16l-5.09,5.07-5.08-5.07a3.18,3.18,0,0,1,0-4.51m4.8,10.42a0.41,0.41,0,0,0,.57,0l5.37-5.35a6.31,6.31,0,1,0-11.31,0Z" transform="translate(-759.56 -852.86)"/><path class="cls-4" d="M766.65,854.71a3.2,3.2,0,0,1,4.52,0l0.28,0.28a0.41,0.41,0,0,0,.57,0l0.29-.28a3.25,3.25,0,0,1,3.48-.65,3.15,3.15,0,0,1,1,5.16l-5.09,5.07-5.08-5.07A3.18,3.18,0,0,1,766.65,854.71Zm4.8,10.42a0.41,0.41,0,0,0,.57,0l5.37-5.35a6.31,6.31,0,1,0-11.31,0Z" transform="translate(-759.56 -852.86)"/></g></svg>