<svg id="Livello_1" data-name="Livello 1" xmlns="http://www.w3.org/2000/svg" xmlns:xlink="http://www.w3.org/1999/xlink" viewBox="0 0 26.23 25.79"><defs><style>.cls-1,.cls-3{fill:none;}.cls-2{clip-path:url(#clip-path);}.cls-3{stroke:#00b3b1;stroke-linecap:round;stroke-linejoin:round;}</style><clipPath id="clip-path" transform="translate(-511.73 -852.4)"><rect class="cls-1" x="511.23" y="849.85" width="27.23" height="31.75"/></clipPath></defs><title>icon-green-3</title><g class="cls-2"><path class="cls-3" d="M526.22,861.94a13.7,13.7,0,0,1,1.65,5.36c0-1.68,3.11-3.86,3.11-3.86M523,873.16H530m-11.48-4.94c4.83,0.07,6,2.45,7.23,2.45s4.68,0,4.24,2.48c1.74,0.52,4.51-3.32,5.66-3.32a1.7,1.7,0,0,1,1.83,2c0,1.79-7.4,5.89-10.48,5.89s-7.27-3.12-8.69-3.12m0,1.28h-6.06V866h6.06v9.87Zm7.94-13.92c0.5-5.37-3.22-8.74-8.75-9C517,857.42,519.9,862.5,526.22,861.94Zm4.76,1.5c-0.31-3.27,2-5.33,5.34-5.51C536.59,860.68,534.84,863.77,531,863.43Z" transform="translate(-511.73 -852.4)"/></g></svg>