<svg id="Layer_1" data-name="Layer 1" xmlns="http://www.w3.org/2000/svg" viewBox="0 0 282.5 199.9"><defs><style>.cls-1{fill:#fff;}</style></defs><title>logo-white</title><path class="cls-1" d="M219.3,87.3a1,1,0,0,1-1-.5c-0.5-.5-0.5-1-1-1.5-2-3.9-5.4-5.9-9.3-7.3-1.5-.5-2.9-0.5-4.4-1h-2.4c-3.4,0-6.4-.5-9.8,0-2.9,0-5.9.5-8.8,0.5a103.34,103.34,0,0,0-12.2,2L163.1,81c-4.4,1-9.3,2-13.7,3.4a71.93,71.93,0,0,0-8.8,2.4,6.3,6.3,0,0,0-2.9,1,1.08,1.08,0,0,0-1,1,110.28,110.28,0,0,1-3.4,10.7c-2,5.9-4.4,11.7-6.8,17.6a62,62,0,0,0-3.9,8.3c-0.5,1-1,2-1.5,2.9s-1,2-1.5,2.9h0c0.5-1,1.5-1.5,1.5-2.9h0c0.5,0,.5,0,0.5-0.5,0.5-.5.5-1.5,1-2a5.67,5.67,0,0,1,1.5-2.4v0.5c-1,2-2,3.4-2.9,5.4l-2.4,4.4c-0.5,1-1.5,2.4-2,3.4-1,1.5-2,2.9-2.9,4.4-0.5,1-1.5,2.4-2,3.4-1,2-2.4,3.4-3.4,5.4a12.53,12.53,0,0,0-1.5,2.4l-3.9,4.9c-1,1.5-2.4,2.9-3.4,4.4a7.54,7.54,0,0,1-2,2,12.68,12.68,0,0,0-2,2.4l-4.4,4.9c-1.5,2-3.4,3.4-5.4,5.4a30.81,30.81,0,0,1-4.4,3.9,2.65,2.65,0,0,0-1,1.5,28,28,0,0,1-5.9,4.9c-0.5.5-1,.5-1,1-1.5,1-2.4,2-3.9,2.9a26.08,26.08,0,0,1-4.4,3.4,30.88,30.88,0,0,1-6.8,3.4,27.4,27.4,0,0,1-5.9,2,13.25,13.25,0,0,1-4.4.5,9.25,9.25,0,0,1-3.9-.5,12.36,12.36,0,0,1-5.4-2.9,5.2,5.2,0,0,1-2-2.4,23.07,23.07,0,0,1-1.6-7V184a21.59,21.59,0,0,1,1.5-7.8c0.5-1.5,1-2.9,1.5-4.4a0.49,0.49,0,0,1,.5-0.5h0c0,0.5-.5,1-0.5,1.5v1c-0.5,0-.5,0-0.5.5,0,1-.5,2-0.5,2.9v0.5l-0.5.5c0,1-.5,2-0.5,2.9a8,8,0,0,1-.5,3.4v4.4h0v-1a38.37,38.37,0,0,1,.5-7.8l2-2.9c0-.5.5-1,0.5-1.5,0-1,.5-1.5.5-2.4,0-.5.5-1.5,0.5-2v-0.5l0.5-.5v2.5a0.49,0.49,0,0,0-.5.5,11.34,11.34,0,0,0-.5,2v0.5a11.34,11.34,0,0,0-.5,2v0.5a6.14,6.14,0,0,0,.5-2.9c0.5-.5.5-1.5,1-2.4v-1.5l0.5-.5c0-.5.5-1,0.5-1.5s0.5-.5.5-1,0.5-1,.5-1.5a0.49,0.49,0,0,0-.5.5v1c-0.5,0-.5,0-0.5.5l-0.5,1.1a24.22,24.22,0,0,0,.5-2.4l-0.5.5a0.49,0.49,0,0,0-.5.5v-1c1-2.4,2-4.4,2.9-6.4a35.58,35.58,0,0,1,2.9-5.4,43.9,43.9,0,0,1,3.9-6.4c0.5-1,1-1.5,1.5-2.4a12.75,12.75,0,0,1,2.4-2.9l2-2.9,0.5-.5v0.5h0a26.08,26.08,0,0,0,3.4-4.4l2.4-2.4a5.56,5.56,0,0,1,2.4-2.4l2.9-2.9,4.9-4.9,0.5-.5a12.23,12.23,0,0,0,3.4-3.4l2.4-2c1-1,2-1.5,2.9-2.4,3.4-2.9,6.8-5.9,10.7-7.8l2.4-2a43.9,43.9,0,0,1,6.4-3.9c2-1,3.9-2.4,5.9-3.4,2.4-1.5,4.9-2.4,7.3-3.9a67.63,67.63,0,0,1,8.8-3.9c2.9-1,5.9-2,8.3-2.9a4.6,4.6,0,0,0,2.4-1l0.5-.5c0.5-2.4,1.5-4.9,2-7.3,0-1,.5-2,0.5-3.4a31.92,31.92,0,0,0,1-6.8l0.5-5.4V63.3c0-2,.5-3.9.5-5.9V52a23.55,23.55,0,0,0-.5-5.9V43.7c0-1.5-.5-2.9-0.5-4.4-0.5-2-1-3.4-1.5-5.4a23.65,23.65,0,0,0-2-5.4,10.69,10.69,0,0,0-2.9-4.9,19.1,19.1,0,0,0-6.4-5.9,21.24,21.24,0,0,0-6.4-2.4,41.66,41.66,0,0,0-7.8-1,73.23,73.23,0,0,0-10.3,1l-3.4.5c-3.9,1-7.3,2.4-10.7,3.4-2,1-4.4,2-6.4,2.9-2.4,1-4.4,2.4-6.8,3.4a109.13,109.13,0,0,0-9.8,6.4L60.8,34c-0.5.5-.5,0.5-1,0V33a2.65,2.65,0,0,1,1-1.5,1.08,1.08,0,0,1,1-1,59,59,0,0,1,8.3-6.4,54.07,54.07,0,0,1,11.2-6.4,67.63,67.63,0,0,1,8.8-3.9c2.9-1,6.4-2,9.3-2.9a24.3,24.3,0,0,1,5.9-1h8.3a31,31,0,0,1,9.3,2,31.75,31.75,0,0,1,6.8,4.4,28.84,28.84,0,0,1,5.9,6.8,38.54,38.54,0,0,1,2.9,5.4c0.5,1.5,1.5,2.9,2,4.9,0.5,1,.5,2,1,2.9,0.5,2,1,3.9,1.5,5.9,0,1,.5,2.4.5,3.4V63.7a5.76,5.76,0,0,1-.5,2.9l-0.5,5.9a80.45,80.45,0,0,1-2,10.7v1h1c1.5-.5,2.9-1,4.9-1.5l5.4-1.5c2.9-.5,5.9-1.5,8.8-2s5.9-1.5,8.8-2a36.88,36.88,0,0,1,7.8-1h2c2.9-.5,6.4-0.5,9.3-1h11.7a19.72,19.72,0,0,1,7.8,1.5,19,19,0,0,1,9.3,5.9,27.71,27.71,0,0,1,2.4,3.9A1.91,1.91,0,0,1,219.3,87.3ZM37.8,188.3h0Zm0.5-5.9h0v2h0v-2Zm0.5-1.9v-1a0.49,0.49,0,0,0-.5.5c0-.5,0,0,0.5.5a1,1,0,0,0-.5,1Zm0-2.5v1.5h0V178Zm1,3.9v1.5C40.3,182.4,40.3,182.4,39.8,181.9Zm0.5-1c0-1,.5-1.5.5-2.4l0.5-2a2.41,2.41,0,0,0-.5,2h0c-0.5.5,0,1-.5,1C39.8,180.5,40.3,180.5,40.3,180.9Zm78-55.1a2.65,2.65,0,0,1,1-1.5c1.5-2.4,2.4-4.9,3.9-7.8,1-1.5,1.5-3.4,2.4-4.9,0.5-1,1-2.4,1.5-3.4l2.4-6.4a20.24,20.24,0,0,1,2-4.9l2-5.4a24.22,24.22,0,0,0,.5-2.4,3.35,3.35,0,0,0-2.4,1c-2.9,1-5.9,2.4-8.8,3.4-1,.5-2,1-2.9,1.5L116,97c-1,.5-2,1-2.9,1.5l-3.4,2c-2.4,1.5-4.4,2.4-6.4,3.9-3.4,2.4-6.8,4.4-9.8,6.8-2.4,2-4.4,3.4-6.8,5.4L86,117c-0.5,0-.5.5-1,1a12.75,12.75,0,0,0-2.9,2.4l-2.9,2.4c-1,1-2.4,2-2.9,2.9l-1,.5-1,1-1,1a6.9,6.9,0,0,1-2,1.5H70.8c-1,1-2,2.4-2.9,3.4L64.5,137c-1,1.5-2,2.4-2.9,3.9l-1,1.5c-0.5,1-1.5,1.5-2,2.4,0,0.5-.5.5-1,1h0a1.75,1.75,0,0,0-.5,1h0.7v0.5l-3.4,4.4h0v0.5a71.88,71.88,0,0,0-3.9,6.4L50,159H49.5L48,161h0.5a32,32,0,0,0-2.4,4.9,0.49,0.49,0,0,1-.5.5l0.5-1.5v-1c0.5,0,.5,0,0-0.5v1c-1,2-1.5,3.4-2.4,5.4a45.51,45.51,0,0,1-2,6.4,27.13,27.13,0,0,0-1.5,8.8v2l0.5,0.5V187a2.47,2.47,0,0,1-.5,1.5h1V190a9.63,9.63,0,0,0,2,3.9c1.5,1.5,2.9,2.4,4.9,2.4a10.48,10.48,0,0,0,3.9-.5c2.9-.5,5.4-2,7.8-3.4,2-1,3.4-2,4.9-2.9l4.9-3.4a2.65,2.65,0,0,1,1.5-1l2-2,1.5-1.5a27.14,27.14,0,0,1,3.9-3.4l1-1,2.9-2.9,2.9-2.9c2.4-2.4,4.4-4.9,6.4-7.3a42,42,0,0,0,3.9-4.9,64,64,0,0,0,6.4-8.8v-0.5l2.9-3.4a2.65,2.65,0,0,0,1-1.5c1-2,2.4-3.4,3.4-5.4,1-1.5,2-2.4,2.4-3.9a0.49,0.49,0,0,1,.5-0.5l0.5-1c0-1,1-1.5,1-2.4C116.3,130.2,117.3,128.3,118.3,125.8ZM41.2,175.6a1.84,1.84,0,0,0,.5-1.5A1.84,1.84,0,0,0,41.2,175.6Zm0.5-9.7v0.5C42.2,166.4,42.2,166.4,41.7,165.9Zm0,7.2h0c0.5-.5,0-0.5,0,0h0Zm1-9.2h0a1.08,1.08,0,0,0,1-1,0.49,0.49,0,0,0-.5.5l-0.5.5v1C43.2,164.4,42.7,164.4,42.7,163.9Zm0.5,1.5c-0.5,0-.5.5-0.5,1Zm0.5-1.5c-0.5,0-.5.5,0,0-0.5.5,0,.5,0,0h0Zm-0.5,4.4c0.5,0,.5-0.5,0,0a1.55,1.55,0,0,0,.5-1h0c0.5,0,0,.5-0.5,1C43.7,167.8,43.7,168.3,43.2,168.3Zm0.5-5.8v0Zm0-.5h0Zm1-.5v0Zm0-1c0-.5.4-0.5,0,0v0h0Zm0.4,3.9h0Zm0-3.9h0c0.5,0,.5-0.5,0,0h0C45.6,160,45.1,160,45.1,160.5Zm1-1.5h0Zm0.5-.9h0Zm0-2h0Zm0.5,6.8v0Zm0,0c0.5,0,.5-0.5.5-1A0.83,0.83,0,0,0,47.1,162.9Zm1-7.3h0v0h0Zm0-1.4h0Zm0.5,0h0Zm0.5-1h0Zm0.9-1.5h0Zm0,5.4c0.5,0,.5-0.5.5-1A1.75,1.75,0,0,0,50,157.1Zm0.5-6.9h0Zm0.5,0.5h0Zm0.5-1.9h0Zm0.5,5.4h0Zm0-5.4c0.5,0,.5-0.5.5-1Zm1.5-2.5h0Zm0.9-1.4h0Zm1.5-2h0.5s0.5,0,0-.5Zm1.5-1.9h0l0.5-.5A0.49,0.49,0,0,1,57.4,141Zm0.9-1.5h0Zm0.4,0c0.5,0,.5-0.5.5-1,0.5,0,.5,0,0.5-0.5l-0.5.5C59.2,139,58.7,139,58.7,139.5Zm1.5,2.9h0Zm0.5-5.3h0Zm1-1h0Zm1-1,0.5-.5,0.5-1c-0.5,0-.5.5-0.5,1C63.1,134.6,62.7,134.1,62.7,135.1ZM65.1,29.7h0Zm0,103h0a1.84,1.84,0,0,0,.5-1.5c0.5,0,.5,0,0.5-0.5h0l-0.5.5C65.6,131.7,65.1,132.2,65.1,132.7Zm2-3h0c0.4,0,.4-0.5,0,0h0Zm0.9-1h0ZM68,27.3h0Zm1,101c0.5,0,.5,0,0.5-0.5Zm2-2.5h0Zm1.9-1.5h0Zm2-100.8H74.4l-0.5.5h0.5C73.9,23.9,74.4,23.5,74.9,23.5Zm-1,99.9a1.75,1.75,0,0,1,1-.5C74.4,122.4,73.9,122.9,73.9,123.4Zm1.9-1.9h0ZM76.3,22c-0.5,0-.5,0-0.5.5A0.49,0.49,0,0,0,76.3,22Zm0,99c0.5,0,.5-0.5.5-1,0.5,0,.5,0,1-1l-1,1C76.8,120.5,76.3,120.5,76.3,121Zm2.5-2.4h0C79.3,118.1,79.3,118.6,78.8,118.6Zm1-98.1h0Zm1.4-1h0Zm0,97.1h0ZM81.7,177h0Zm0.5-61.4h0Zm1-96.5h0Zm0.5,96c0-.4.5-0.4,0,0h0Zm0.9-.9h0Zm1-1h0C86.1,112.7,86.1,113.2,85.6,113.2Zm1,58.9h0Zm0.5-59.9h0ZM89,169.3a4.24,4.24,0,0,0-1.5,1.5C88.6,170.3,89,170.3,89,169.3Zm-0.4-58.1h0Zm0.9-.9,0.5-.5h0Zm0.5-.5a2.65,2.65,0,0,0,1.5-1c0.5,0,.5-0.5,1-0.5-0.5,0-.5.5-1,0.5A2.65,2.65,0,0,0,90,109.8Zm2.9,55.1c-0.5.5-1,.5-1,1.5a2.65,2.65,0,0,0-1.5,1v0.5c-0.5,0-.5,0-0.5.5l0.5-.5,1.5-1.5C92.9,165.4,92.9,165.4,92.9,164.9ZM90.5,16.1h0Zm2.4,91.7h0Zm1.5,55.6c0.5,0,.5-0.5,0,0h0Zm2.5-2.9-1,1.5v1c-0.5,0-.5,0-0.5.5,0.5,0,.5,0,0.5-0.5a0.49,0.49,0,0,1,.5-0.5C96.4,161,96.9,161,96.9,160.5Zm-1-54.6a0.49,0.49,0,0,0,.5-0.5h0Zm2.9,52.7-1.5,1.5h0.5c0-.6.5-0.6,1-1.5h0Zm-0.5-54.2h0Zm2,51.7c-0.5.5-1,.5-1,1.5A3.84,3.84,0,0,0,100.3,156.1Zm0.5-.5h0c-0.5,0-.5.5,0,0-0.5.5,0,.5,0,0h0Zm-0.5-52.7,0.5-.5Zm1.4,51.7-0.5.5Zm1-1.4h0Zm4.8-6.9c-0.5,0-.5,0-0.5.5l-0.5,1c-0.5.5-1,1.5-1.5,2-0.5,1-1.5,1.5-2,2.4h0a2.71,2.71,0,0,0,1.5-2.4H105c0.5-.5.5-1,1-1.5v-0.5C106.6,147.8,107,147.3,107.5,146.3ZM103.2,101h0Zm2.5-1h0Zm0.9-1c0.5,0,.5,0,0.5-0.5A0.45,0.45,0,0,0,106.6,99Zm1.4,46.4-0.5.5C108,145.8,108.5,145.8,108,145.4Zm1.5-2c0,0.5-.5.5-0.5,1h0A1.75,1.75,0,0,0,109.5,143.4ZM109,97.6h0Zm1,44.8h0Zm0.9-45.8h0Zm0.5,44.4h0Zm2.5-4.9c0,0.5-.5.5-0.5,1s-0.5,1,0,1.5a1,1,0,0,0-1,.5v0.5h-0.5V139l0.5-.5h0.5V137C113.9,136.6,113.9,136.6,113.9,136.1Zm-1.5-40h0Zm1,40.5h0Zm1.5-1.5h0Zm0-1h0Zm1.9-2.9a2.65,2.65,0,0,1-1,1.5c0,0.5-.5.5-0.5,1a1,1,0,0,0,.5-1C116.8,132.2,116.8,132.2,116.8,131.2Zm0-1h0Zm0.5,6.4a1,1,0,0,0-.5,1C117.3,137.5,117.3,137.1,117.3,136.6Zm0.5-6.9c0,0.5-.5.5,0,1v-1Zm0-1.4h0c-0.5.5,0,.5,0,0.5v-0.5h0Zm1,0c-0.5,0-.5.5-0.5,1A0.83,0.83,0,0,0,118.8,128.3Zm0-1.5h0Zm1.4,4.9h0a1,1,0,0,0-.5,1l-0.5,1c0,0.5-.5.5-0.5,1.5,0.5-.5.5-0.5,0.5-1.5,0.5-.1,1-0.6,1-2h0Zm-0.5-6.4c0-.5-0.4-0.5,0,0h0c-0.5.5-.5,0.5,0,0.5C119.3,125.8,119.7,125.3,119.7,125.3Zm-0.4,2v0Zm0.4-1h0Zm0.5-.5h0Zm0.5-2.9a1.55,1.55,0,0,1-.5,1A1,1,0,0,0,120.7,122.9Zm0.5,1a0.49,0.49,0,0,1-.5.5l-0.5.5a0.49,0.49,0,0,0,.5-0.5C121.2,124.3,121.2,124.3,121.2,123.9Zm0-2.4c0,0.5-.5,1-0.5,1.5C121.2,122.4,121.7,122.4,121.2,121.5Zm2.9-2.9a3.77,3.77,0,0,0,1-2.4h0s0.5,0,0-.5v0.5c-0.5-.1-1,0.9-1,2.4h0c-0.5,0-.5.5-1,1l-1,1V120h0l1.5-2.9h0c-0.5.5-.5,1.5-1,2,0,0.5-.5.5-0.5,1h0c-0.5.5-.5,1-1,1.5l0.5-.5v1h0.5A12.83,12.83,0,0,0,124.1,118.6Zm-2.4,3.8h0Zm0.5-1.9v0Zm0,5.3h0Zm11.7-36.1c-0.5,2-1,3.4-1.5,5.4-1,2.4-1.5,4.4-2.4,6.8l-2.4,6.4c-1,2.4-2,4.4-2.9,6.8,0,0.5-.5,1-0.5,1.5a0.49,0.49,0,0,0,.5-0.5c0.5-1,1-2,1.5-2.9l2.9-6.8c1-2,1.5-3.9,2.4-5.9a11.34,11.34,0,0,0,.5-2c0-.5.5-0.5,0.5-1h0a3.78,3.78,0,0,1,.5-2c0.5-2,1.5-3.9,2-5.9V89.1C133.9,89.3,133.9,89.7,133.9,89.7Zm-8.8,30.8a1.08,1.08,0,0,0,1-1,0.49,0.49,0,0,0-.5.5c-0.5,0-.5,0-0.5.5v0Zm0.5,2.9v0Zm0-1a1,1,0,0,1,.5-1C126.1,122.4,126.1,122.4,125.6,122.4Zm0,0h0Zm0-3.3a3.79,3.79,0,0,0,1-2A7.33,7.33,0,0,1,125.6,119.1Zm0.5-4.4a7.33,7.33,0,0,1,1-2h0C126.6,112.7,126.1,113.7,126.1,114.7Zm0.5,6.8c-0.5,0-.5.5,0,0h0Zm0,0v0Zm0-.5,0.5-1.5c0.5-.5.5-1.5,1-2l0.5-1V117a28.39,28.39,0,0,0-1.5,3.4A0.52,0.52,0,0,1,126.6,121Zm2.4-14.2c0,0.5-.5.5-0.5,1.5a0.49,0.49,0,0,0-.5.5c-0.5,1-1,2.4-1.5,3.4H127a22.65,22.65,0,0,1,1.5-3.4A3.78,3.78,0,0,0,129,106.8Zm-1.9,10.3h0Zm0.5-1h0Zm0.4-1.9c-0.5,0-.5.5-0.5,1C128,115.1,128,114.7,128,114.2Zm0.5-1c0.5-.5.5-1.5,1-2.4a4.6,4.6,0,0,0-1,2.4c-0.5,0,0,.5,0,0.5v-0.5Zm2.5-1a9.63,9.63,0,0,1-2,3.9v-0.5l2-3.9v0.5Zm-2,3.9h0Zm3.4-17.6a3.59,3.59,0,0,0,.5-2.4l-0.5.5a1,1,0,0,1-.5,1,3.05,3.05,0,0,0,.5.9c-0.5,0-.5.5-0.5,1l-1.5,3.9a8.81,8.81,0,0,0-1,3.4c0.5,0,.5-0.5.5-1,1-2,1.5-4.4,2.4-6.4C132,99,132,99,132.4,98.5Zm0,4.9a0.69,0.69,0,0,0,0,1H132a32.23,32.23,0,0,1-1.5,3.9h0a1.84,1.84,0,0,0-.5,1.5,1.84,1.84,0,0,0,.5-1.5v-0.5l1.5-3.4v-1C132.4,103.9,132.4,103.9,132.4,103.4Zm-1.4,7.8v0Zm0-.5c0.5-1,1-2,1.5-2.9s1-2,1.5-2.9h0a4.6,4.6,0,0,1-1,2.4,22.65,22.65,0,0,0-1.5,3.4C131.5,110.3,131.5,110.7,131,110.7Zm4.4-15.1h0a1.84,1.84,0,0,0-.5,1.5,1.84,1.84,0,0,0-.5,1.5v1c-0.5,0-.5,0-0.5.5a8.81,8.81,0,0,0-1,3.4c0.5,0,.5,0,0.5-0.5a4.6,4.6,0,0,1,1-2.4c0-.5.5-0.5,0.5-1v-1l0.5-1.5C134.9,96.6,135.4,96.1,135.4,95.6Zm-2-1a3.77,3.77,0,0,0,1-2.4h0l-1,2.4c0,0.5-.5,1,0,1.5C133.4,95.6,133.9,95.1,133.4,94.6Zm1.5,5.9a4.6,4.6,0,0,1,1-2.4v0.5l-1.5,4.4c0,0.5,0,.5-0.5.5A7.59,7.59,0,0,0,134.9,100.5Zm-1,3.9v0Zm1-13.7a1,1,0,0,1,.5-1v0A1,1,0,0,0,134.9,90.7Zm3.4-17.1h0a3,3,0,0,0-.5,2l-0.5,2a3,3,0,0,1-.5,2c0,0.5-.5,1.5-0.5,2s-0.5,1.5-.5,2a11.34,11.34,0,0,0-.5,2h0.5c1-3.4,1.5-6.8,2.4-10.7A11.62,11.62,0,0,0,138.3,73.6Zm-2.9,21.5h0Zm0.5-1.5h0Zm2.9-3.9-0.5,2.4v0.5l-2,5.4h0V97.5l1.5-4.4V91.6l1-1.9h0Zm-2.4,2.5h0Zm2.4-22.4a3.59,3.59,0,0,0-.5,2.4h0V71.7A3.32,3.32,0,0,0,138.8,69.8Zm0,18.5v1S138.3,89.3,138.8,88.3Zm0-21c0,0.5-.5.5,0,1C139.3,67.8,139.3,67.8,138.8,67.3Zm0.5-1.9h0Zm0.5-4.9h0Zm0,20.9a4.34,4.34,0,0,0-.5,2.4A2,2,0,0,0,139.8,81.4Zm0.5-.9h0a1,1,0,0,0,.5-1v-2a6.34,6.34,0,0,0-.5,3h0Zm1.4-5.4v-1C141.2,74.1,141.2,74.6,141.7,75.1Zm0.5-4.3h0Z" transform="translate(-35.3 -0.3)"/><path class="cls-1" d="M185.6,96.1c0,0.5-.5.5-1,1h-1c-4.4,1.5-4.4,2-9.3,2.9a18.07,18.07,0,0,1-7.3.5,14,14,0,0,1-4.4-1l-0.5-.5h-0.5c0,0.5-.5.5-0.5,1-0.5,1.5-1.5,2.9-2,4.9a8.9,8.9,0,0,1-2,2.9v0.5a3.9,3.9,0,0,1-2,2v0.5l-0.5.5h0a12.68,12.68,0,0,0-2,2.4h0c-1.5,1-2.9,2-4.9,1.5a4,4,0,0,1-2.9-1.5c-2-2-2-3.9-1.5-6.4a28.39,28.39,0,0,0,1.5-3.4,77.47,77.47,0,0,1,4.9-8.8,27.14,27.14,0,0,1,3.4-3.9,1.75,1.75,0,0,1,1-.5,0.69,0.69,0,0,1,1,0c0.5,0,1,.5,1,1.5a3.78,3.78,0,0,1-.5,2c-1,1.5-2,2.9-2.9,4.4-0.5,1-1.5,2.4-2,3.4-1,2.4-2.4,4.9-2.9,7.3,0,0.5-.5,1.5-0.5,2s0,0.5.5,0.5,0.5-.5,1-0.5a46.45,46.45,0,0,0,6.4-7.3,47.76,47.76,0,0,0,3.4-7.3,7.18,7.18,0,0,0,1-2.9c0.5-1,1-1,1.5-.5a11.65,11.65,0,0,1,2,2.9c0,1,.5,1,1.5,1H170c12.2-1.5,9.3-1.5,13.2-2.4h1c0.5,0,1.5,0,1.5.5h0c0,0.5,1,.5,1,1s-0.5.5-1,1h0V96.1h-0.1ZM150,111.7h0c0-.5-0.5-0.5,0,0-0.5,0-1,0-1,.5h0.5c0-.5,0-0.5.5-0.5h0Zm3-.5a7.32,7.32,0,0,0-2.4,2h0C151.5,113.2,152.5,112.2,153,111.2Z" transform="translate(-35.3 -0.3)"/><path class="cls-1" d="M232,1.5c-0.5,1.5-1,2.4-1.5,3.9s-1.5,2.9-2,4.4l-2,2.9c-0.5,1-1,2-1.5,2.9l-1,2c-1.5,2.9-2.9,5.4-3.9,7.8v1.5h0a12.09,12.09,0,0,0-2,3.4,0.49,0.49,0,0,1-.5.5,3.79,3.79,0,0,0-1,2v0.5c0,0.5-.5.5-0.5,1a29.19,29.19,0,0,1-2,3.9v0.5a0.49,0.49,0,0,1-.5.5,3.79,3.79,0,0,0-1,2h0a28,28,0,0,1-2,3.9v0.5l-0.5.5a1.84,1.84,0,0,0-.5,1.5,38.54,38.54,0,0,0-2.9,5.4v1l-0.5.5h0l-0.5.5a1.08,1.08,0,0,1-1,1l-3.9,7.8c-0.5,1-1,1.5-1,2.4v0.5c0,0.5-.5.5-0.5,1l-0.5.5c0,0.5-.5.5-0.5,1v0.5h0l-0.5,1h0v0.5h-0.5c-0.5,1-1,2-1.5,2.9h0a0.49,0.49,0,0,1-.5.5v1.5a1.75,1.75,0,0,0-.5,1c-1,2-1.5,3.9-2.4,5.9v1h0v0.5a12.53,12.53,0,0,0-1.5,2.4v0.6h-0.5l-0.5,1a0.49,0.49,0,0,1-.5.5h0a1.75,1.75,0,0,1-.5,1v0.5c-0.5.5-.5,1.5-1,2a7.16,7.16,0,0,0-1,3.4c-0.5.5-.5,0.5-0.5,1.5H187a22.65,22.65,0,0,1-1.5,3.4v1.5a1,1,0,0,0-.5,1,32.23,32.23,0,0,1-1.5,3.9v2h0v1a1.75,1.75,0,0,0-.5,1c-0.5,2-1,3.4-1.5,5.4l-2.9,3.9v3.4c0,0.5,0,1,.5,1h0.5c0.5-.5,1.5-1,2-1.5,1.5-1,2.4-2.4,3.9-3.4,2.4-2,4.4-4.4,6.8-6.4a45.27,45.27,0,0,0,4.9-4.9l3.9-3.9,6.4-5.9c2-1.5,3.9-3.4,5.9-4.9l0.5-.5c0.5-.5,1.5-1,2,0a0.69,0.69,0,0,1,0,1c-1,.5-1.5,1.5-2.4,2.4l-13.2,13.2-3.4,3.4-3.9,3.9a50.73,50.73,0,0,1-7.8,6.8c-0.5.5-1.5,1-2,1.5s-1.5.5-2,1c-2.4.5-4.9-1-5.4-2.9-0.5-1.5,0-3.4,0-4.9,0-2.9,1-5.9,1.5-8.8l2-7.3c0-.5.5-1.5,0.5-2,0.5-1,.5-2,1-2.9s0.5-2,1-2.9a36.56,36.56,0,0,1,2.4-5.9,17.17,17.17,0,0,1,2-4.4c0.5-1,1-2.4,1.5-3.4,1.5-2.9,2.9-6.4,4.4-9.3a51.83,51.83,0,0,1,3.9-7.3c0.5-1,1-2.4,1.5-3.4l2.9-4.9c0.5-1.5,1.5-2.9,2-4.4,1-2,2-3.4,2.9-5.4l4.9-8.8c1.5-2.9,2.9-5.4,4.4-8.3a11.7,11.7,0,0,1,2.4-3.9l1.5-2.4c1-2.4,2.4-4.4,3.4-6.8a107.78,107.78,0,0,1,7.8-12.7,1.75,1.75,0,0,0,.5-1,8.44,8.44,0,0,1,2-2.4c0.5,0,.5,0,0.5.5C232,0,232,1,232,1.5ZM210,44.4c-0.5,0-.5.5-1,1-1,2.4-2.4,4.9-3.4,6.8a107.33,107.33,0,0,0-5.4,10.7c-2,3.9-3.9,8.3-5.9,12.2a75.76,75.76,0,0,0-4.9,11.2c-2,4.4-3.4,8.8-5.4,13.2a73.31,73.31,0,0,0-3.4,11.2v1.5a11.34,11.34,0,0,0-.5,2v0a2.41,2.41,0,0,0,.5-2,2.41,2.41,0,0,0,.5-2c1.5-4.4,2.9-8.8,4.4-13.7a112.72,112.72,0,0,1,7.3-17.1c1.5-2.9,2.9-6.4,4.4-9.3l4.4-9.3c2.9-5.4,5.4-10.7,8.3-15.6C209.5,44.9,209.5,44.9,210,44.4ZM182.7,95.6s0.5-.5,0-0.5v0.5Zm1-2.4a1,1,0,0,0,.5-1A1.75,1.75,0,0,0,183.7,93.2Zm0,9.7v-1h0.5Zm1.9-14.1h0a0.49,0.49,0,0,1,.5-0.5C185.6,88.3,185.6,88.3,185.6,88.8Zm0.5-1.5h0a1.55,1.55,0,0,0,.5-1,1.84,1.84,0,0,0,.5-1.5c-0.5.5-.5,0.5-0.5,1.5C186.1,86.3,186.1,86.8,186.1,87.3Zm1.5,4.9V91.7c0.5,0,.5,0,0,0.5h0Zm0.5-9.8c0-.5.5-0.5,0.5-1l0.5-1v-1A7.59,7.59,0,0,0,188.1,82.4Zm0,9.3h0ZM190.5,77a1.84,1.84,0,0,0-.5,1.5c0-.5.5-0.5,0.5-1V77Zm0.5,7.9v0h0Zm0-.5h0Zm0.5-8.8,0.5-1v0h0V74.1h0a1.84,1.84,0,0,1,.5-1.5H193v-1c0,0.5-.5.5-0.5,1A7.11,7.11,0,0,0,191.5,75.6Zm2.9,0.9h0Zm0.5-.4h0v0Zm0-8.3c0.5,0,.5-0.5.5-1C195.4,67.3,194.9,67.3,194.9,67.8Zm0.5,7.8v0h0Zm2.9-6.3h0Zm4.4-17.1h0Zm1.9,3.9h0Zm1-1h0Zm0-.5h0Zm0,0h0Zm4.4-8.3h0Zm0-2.4a1.75,1.75,0,0,0,.5-1C210,42.9,210,43.4,210,43.9Zm2.4-2.5h0Zm0,0.5h0Zm0.5-3.9a1.55,1.55,0,0,0-.5,1C212.9,39,212.9,38.5,212.9,38Zm-0.5,3.4h0Zm2-5.8c0,0.5-.5.5-0.5,1A1.55,1.55,0,0,0,214.4,35.6Zm0.5-1.5c0,0.5-.5.5-0.5,1A1.55,1.55,0,0,0,214.9,34.1Z" transform="translate(-35.3 -0.3)"/><path class="cls-1" d="M251.5,95.1a43.63,43.63,0,0,0-8.3,4.4c-1,1-2.4,1.5-3.4,2.4-2,1.5-4.4,2.9-6.8,4.4l-5.9,4.4a12.75,12.75,0,0,0-2.9,2.4h0c-1.5,1-2.9,2-4.4,2.9-2.4,1.5-4.9,2.9-7.3,4.4-1.5.5-2.9,1-4.4,1.5a8.14,8.14,0,0,1-4.9-1.5c-2-2-2.4-3.9-2-6.8a33.62,33.62,0,0,1,2.9-8.8c1-2.4,2.9-4.9,4.4-7.3,0-.5.5-0.5,0.5-1a12.75,12.75,0,0,1,2.4-2.9,7.54,7.54,0,0,0,2-2,18.74,18.74,0,0,1,4.9-3.9,8.31,8.31,0,0,0,2.4-1.5c1.5-.5,2.4-0.5,3.4.5,1.5,1.5,2,2.9,0,5.4-1.5,1.5-2.9,3.4-4.9,4.4s-3.4,2.4-5.9,2.9a2.65,2.65,0,0,0-1.5,1c-0.5.5-.5,1-1,1.5a43.14,43.14,0,0,0-3.4,6.8v1c-0.5,1-.5,2-1,2.9a8,8,0,0,0-.5,3.4v2.4c0,0.5.5,0.5,1,.5a4.6,4.6,0,0,0,2.4-1c2-1,3.4-2,4.9-2.9,2.9-2,5.4-3.4,8.3-5.4,4.4-2.9,8.3-5.9,12.7-8.3,3.4-2,6.4-4.4,9.8-5.9,1-.5,2-1,2.9-1.5,0.5-.5,1-0.5,1.5-1a3,3,0,0,1,2,.5C251,93.6,251.5,94.1,251.5,95.1Zm-35.7-.5a2.6,2.6,0,0,0,2-1l1.5-1.5c1-.5,1.5-1.5,2.4-2.4V89.2h-0.5c-1,.5-2.4,1-2.9,2.4h0A7.22,7.22,0,0,0,215.8,94.6Zm0.5,20.1h0Zm0-.5a1,1,0,0,0,1-.5C216.8,113.7,216.8,114.2,216.3,114.2Zm0.5-24.5h0Zm31.8,5.9a1,1,0,0,0-1,.5h-0.5a1.55,1.55,0,0,0-1,.5,80.43,80.43,0,0,0-6.8,4.4c-1,.5-1.5,1-2.4,1.5-0.5.5-1,.5-1.5,1-2,1.5-4.4,2.9-5.9,4.4l-1,.5c-2.9,2-5.4,3.9-8.3,5.9-0.5.5-1,.5-1.5,1a1,1,0,0,0-1,.5c-0.5,0-.5.5-1,0.5a1,1,0,0,0,1-.5,1,1,0,0,0,1-.5,7.12,7.12,0,0,0,2-1c2-1,3.4-2.4,5.4-3.4,1.5-1,2.4-2,3.9-2.9a43.25,43.25,0,0,0,7.8-5.4c1-.5,1.5-1,2.4-1.5a0.49,0.49,0,0,0,.5-0.5,40,40,0,0,0,5.9-3.9,0.49,0.49,0,0,0,.5-0.5l0.5-.5A5.81,5.81,0,0,1,248.6,95.6Zm-29.3-2c-0.5.5-1.5,1-2,1.5a1.84,1.84,0,0,0,1.5-.5C218.8,94.1,219.3,94.1,219.3,93.6Zm-2-4.3h1c0.5,0,.5-0.5,1-0.5s0.5-.5,1-0.5V87.8h0c-1,.5-1.5.5-2,1.5h-1Zm0,2.4c1.5-1,2.9-2,4.4-2.9C220.2,88.8,218.3,90.2,217.3,91.7Zm0.5-2.4h0l0.5-.5v0.5c0-.5,0-0.5-0.5,0h0Zm0,24.4a1,1,0,0,0,1-.5C218.3,113.2,217.8,113.2,217.8,113.7Zm0.5-21.5h0Zm0.5,3.4a1,1,0,0,0-1,.5C218.3,96.1,218.8,96.1,218.8,95.6Zm0,17.6h1l0.5-.5h0.5l0.5-.5h2.5v-2h0.5c0.5,0,.5-0.5,1-0.5h0a1,1,0,0,0,1-.5h0l0.5-.5a1,1,0,0,0,1-.5h0.5c0.5,0,.5-0.5,1-0.5l0.5-.5h0.5l0.5-.5h1l0.5-.5c0.5,0,.5-0.5,1-0.5l0.5-.5c0.5,0,.5-0.5,1-0.5h1v-0.5h0l0.5-.5h0.5c0.5,0,.5-0.5,1-0.5l0.5-.5,0.5-.5h0l0.5-.5h0c0.5,0,.5-0.5,1-0.5h0c0.5,0,.5-0.5,1-0.5h0c0.5,0,.5-0.5,1-0.5l1-.5a1.75,1.75,0,0,1,1-.5l0.5-.5h0l0.5-.5V97.7a1.55,1.55,0,0,0-1,.5,1,1,0,0,0-1,.5,1,1,0,0,0-1,.5c-0.5,0-1,0-1,.5a8.9,8.9,0,0,0-2.9,2,1,1,0,0,0-1,.5,1,1,0,0,0-1,.5c-1,.5-1.5,1-2.4,1.5a1,1,0,0,0-1,.5,2.65,2.65,0,0,0-1.5,1c-1,.5-1.5,1-2.4,1.5a2.65,2.65,0,0,0-1.5,1,2.65,2.65,0,0,0-1.5,1,2.65,2.65,0,0,0-1.5,1,4.37,4.37,0,0,0-2.4,2,2.65,2.65,0,0,0-1.5,1,1.08,1.08,0,0,0-1,1,2.65,2.65,0,0,0-1.5,1C219.3,112.2,218.8,112.7,218.8,113.2Zm2.4-19.1h0a6.9,6.9,0,0,0-2,1.5h0c0.5-.5,1.5-1,2-1.5h0Zm0.5-.9h0Zm1,17.1h0Zm1.4-1h0C223.6,109.8,224.1,109.8,224.1,109.3Zm2.5-1.5h0Zm0,0h0Zm1-.5h0Zm0.4-.5h0Zm1-.9h0Zm1.5-1h0Zm2.4-1.5h0Zm4.4-2.9h0Zm8.3-5.4h0Zm1-.5h0Zm0.5,0h0c0.5-.5,0-0.5,0,0h0Zm2,0.5h0Z" transform="translate(-35.3 -0.3)"/><path class="cls-1" d="M285.6,95.1l-2,2a1.75,1.75,0,0,1-1,.5h0V98h0l-0.5.5c-1.5,2-3.4,3.4-5.4,5.4a0.49,0.49,0,0,1-.5.5h0c0.5,0,.5-0.5,1-1s0.5-1,1.5-1c0,0.5-.5.5-1,1-2,2-3.9,4.4-5.9,6.4a27.14,27.14,0,0,1-3.4,3.9l-5.9,5.9a2.65,2.65,0,0,1-1.5,1,2.21,2.21,0,0,1-2.9-.5h-2a3.77,3.77,0,0,1-1-2.4,6,6,0,0,1,.5-2.9c1-3.4,2.4-7.3,3.4-10.7,0.5-1.5,1-2.4,1.5-3.9V98.7c-0.5,0-.5-0.5-0.5-1V96.2a0.49,0.49,0,0,0-.5-0.5h0a0.49,0.49,0,0,1-.5.5h0v0.5h0a39.27,39.27,0,0,1-9.8,8.3,7.18,7.18,0,0,1-2.9,1h-2a4.42,4.42,0,0,1-2.9-2.9v-1.5c0-1,.5-2,0.5-2.9a8.31,8.31,0,0,1,1.5-2.4,22.77,22.77,0,0,1,4.9-4.9,9,9,0,0,1,6.8-2,3,3,0,0,1,2,.5,1.84,1.84,0,0,0,1.5-.5c1-1.5,2-2.4,2.4-3.9h0.5c2-2,3.4-4.4,5.4-6.4l1.5-1.5a0.94,0.94,0,0,1,1.5,0c0.5,0,.5.5,1,0.5a2.14,2.14,0,0,1,1,2.9,20.24,20.24,0,0,1-2,4.9c0,0.5-.5.5-0.5,1l0.5-.5a1,1,0,0,1-.5,1V86.9c0,0.5-.5,1-0.5,1.5v0.5l0.5,0.5v1.5a3.77,3.77,0,0,0-1,2.4,2.6,2.6,0,0,0-1,2v0.5h0a7.33,7.33,0,0,0-1,2c0,0.5-.5,1-0.5,1.5a1.55,1.55,0,0,1-.5,1h0a1.84,1.84,0,0,0-.5,1.5v0.5c-0.5,0-.5.5-0.5,1l-2,4.9c0,0.5-.5,1-0.5,1.5a8.14,8.14,0,0,0-1.5,4.9,3,3,0,0,0-.5,2h0c0.5,0.5.5,0.5,1,0l1-1,5.9-5.9,5.4-5.4,5.9-5.9A63.15,63.15,0,0,1,285,93a0.49,0.49,0,0,0,.5-0.5,0.94,0.94,0,0,1,1.5,0C286.1,94.6,286.1,94.6,285.6,95.1ZM253,98l2.4-2.9c0.5-.5.5-1,1-1.5V93.1h-0.5a5.76,5.76,0,0,0-2.9.5,8.9,8.9,0,0,0-2.9,2c-0.5,0-.5.5-1,0.5,0-.5,1-0.5,1-1,0.5,0,.5,0,0.5-0.5a1,1,0,0,0-1,.5,12.23,12.23,0,0,0-3.4,3.4c-0.5,0-.5.5-0.5,1,0.5,0,.5-0.5.5-1,0.5,0,.5-0.5,1-1s0.5-1,1-1a1.75,1.75,0,0,1-.5,1,11.83,11.83,0,0,0-2.4,2.9,10.24,10.24,0,0,0-1,3.4c0,0.5,0,.5.5,0.5,0.5-.5,1.5-0.5,2.4-1.5C249.1,102,251,100,253,98Zm-8.3,2a0.49,0.49,0,0,0,.5-0.5Zm0.4-2.9h0Zm0-.5h0Zm0.5,0h0Zm0.5-.5h0Zm0,0.5h0a3.9,3.9,0,0,0,2-2h-0.5c-0.5,0-1,.5-1.5,2h0Zm6.4,4.4h0l0.5-.5h0.5c0.5-.5,1-0.5,1-1.5H255V98.5h0l0.5-.5h0V97.5H256V97h0v0.5l0.5-.5h0V96.5c-0.5,0-.5.5-0.5,1h-0.5c-0.5,0-.5.5-1,1h0a6.9,6.9,0,0,0-1.5,2c-1,1-2,1.5-2.4,2.9,0.9-1.9.9-1.9,1.9-2.4h0Zm-0.5,2.4a0.49,0.49,0,0,0-.5.5Zm7.2-7.8h-0.5a47.88,47.88,0,0,1-4.9,5.4l-0.5.5h0a0.49,0.49,0,0,0-.5.5,0.49,0.49,0,0,0,.5-0.5h0c0.5,0,.5-0.5,1-1a22.35,22.35,0,0,0,4.9-4.9h0Zm-6.2,4.9h0Zm1.8-2.5h0c0,0.5-.5.5,0,0h0Zm0.5-.9h0Zm0,0h0Zm2-2.5h0Zm1,3.4h0Zm3.4-5.3a12.53,12.53,0,0,0,1.5-2.4h0l-0.5.5h0l-0.5.5v0.5h0l-0.5.5v0.4l-0.5.5h0a1.75,1.75,0,0,0-.5,1h0A2.37,2.37,0,0,1,261.7,92.7Zm-1.5,16.6c0-.5.5-0.5,0.5-1A1,1,0,0,1,260.2,109.3Zm3.4-19.1-2.9,3.9c-0.5.5-.5,1,0,2v1.4C262.2,96.6,264.6,90.7,263.6,90.2Zm-1.4,14.7h0Zm0.9-14.7h0Zm0-3.4a0.49,0.49,0,0,0,.5-0.5V85.8c0.5,0,.5,0,0.5-0.5V84.8h0V84.3a0.49,0.49,0,0,0,.5-0.5V83.3h0V82.8h0a1.08,1.08,0,0,0-1,1c-0.5,0-.5.5-1,1v0.5Zm1.5,11.7a1,1,0,0,0-.5,1C264.6,99.5,264.6,99,264.6,98.5Zm0.5-13.6h0Zm0,14.6h0Zm1-3.9v0Zm0-12.2a0.49,0.49,0,0,0,.5-0.5h0Zm1,9.8h0Zm2.9,14.6-2.9,2.9a0.49,0.49,0,0,1-.5.5c1.4-.5,2.4-1.4,3.4-3.4h0Zm-0.5,2.9h0a11.83,11.83,0,0,0-2.4,2.9c0.9-.9,1.4-1.9,2.4-2.9h0ZM268,91.2a1.84,1.84,0,0,0-.5,1.5C267.5,92.2,268,91.7,268,91.2Zm0.5,1h0Zm1.5,18.1h0Zm0,0h0Zm4.4-4.9h0l-0.5.5h0l-2.9,2.9v0.5c1-1,2.4-2,2.9-3.4h0c0,0.5,0,0,.5-0.5h0Zm-3,1.4h0Zm0.5-.4a3.9,3.9,0,0,0,2-2A3.9,3.9,0,0,0,271.9,106.4Zm4.4-4.9c-1,.5-1.5,1.5-2.4,2.4A4,4,0,0,0,276.3,101.5Zm1,0.9h0Zm0.5,0c0.5-1,1.5-1.5,2.4-2.4A4.68,4.68,0,0,1,277.8,102.4Zm2.9-4.4a8.44,8.44,0,0,0-2.4,2,1.75,1.75,0,0,0,1-.5Zm-0.5,2h0Zm1-1.5h0a1.08,1.08,0,0,1-1,1Zm0.5,0h0Zm0-.5h0Zm0.5-.4h0Zm2-3a2.65,2.65,0,0,1-1.5,1A3.84,3.84,0,0,0,284.2,94.6Z" transform="translate(-35.3 -0.3)"/><path class="cls-1" d="M317.8,94.1a1,1,0,0,1-.5,1l-1,.5-8.8,1.5c-2.9.5-5.4,1-8.3,1.5a2.41,2.41,0,0,0-2,.5c-1,.5-2,1-2,2.4a17.11,17.11,0,0,1-1,4.9l-1.5,10.3c0,1-.5,2.4-0.5,3.4,0,0.5-.5,1.5-0.5,2-0.5,2-1,3.9-1.5,5.4l-0.5,1a9,9,0,0,1-1,3.9c-1,2-1.5,3.9-2.4,5.9a2.41,2.41,0,0,0-.5,2c-1,2-2,3.4-2.4,5.9v0.5a1.75,1.75,0,0,0-.5,1c-0.5,1-1,2-1.5,2.9-0.5,1.5-1.5,2.4-2,3.9h0c-1,1.5-2,2.9-2.9,4.4a69.85,69.85,0,0,1-7.8,9.3,11.65,11.65,0,0,1-2.9,2c-2,1-3.9,0-5.9-1a1,1,0,0,1-.5-1,4.34,4.34,0,0,1-.5-2.4,36.62,36.62,0,0,1,1-7.3,101.68,101.68,0,0,1,2.4-10.3c1-3.4,2-6.8,3.4-10.3,1-2.4,2-4.9,2.9-7.3,1.5-3.4,2.9-7.3,4.4-10.7s2.9-7.3,4.4-10.7l4.4-9.3a106.18,106.18,0,0,1,4.9-10.3c2-3.9,3.9-7.8,5.9-11.7,1.5-2.9,2.9-5.9,4.4-8.3a43.14,43.14,0,0,0,3.4-6.8c0.5-1,1.5-2.4,2-3.4a41.15,41.15,0,0,1,4.9-7.8,33.68,33.68,0,0,1,4.9-6.8l1-1c0.5-.5,1,0,1.5.5v0.5a6.05,6.05,0,0,0-2.4,3.9,7.33,7.33,0,0,0-1,2,38.54,38.54,0,0,0-2.9,5.4L305.5,62c-0.5,1.5-1.5,2.4-2,3.9l-4.4,9.3c-1,2-2,4.4-2.9,6.4a8.31,8.31,0,0,1-1.5,2.4c-1.5,2.4-2.4,5.4-3.4,7.8a2.65,2.65,0,0,1-1,1.5c-1,2.4-2,4.9-2.9,7.3,0,0.5-.5.5-0.5,1L283,106c0,0.5-.5.5-0.5,1l-0.5,2h0a7.33,7.33,0,0,0-1,2c-0.5,2-1.5,3.4-2,5.4-1,2.9-2.4,5.9-3.4,8.8a7.33,7.33,0,0,0-1,2v0.5c-1,2-1.5,4.4-2.4,6.4l-1,1.5v0.5a27.4,27.4,0,0,1-2,5.9,32.23,32.23,0,0,0-1.5,3.9c-0.5,1.5-1,2.9-1.5,4.4l-0.5,1.5c-0.5,2.4-1.5,4.4-2,6.4v1c0,1-.5,2.4-0.5,3.4v4c0,0.5.5,0.5,1,.5,0.5-.5,1.5-1,2-1.5a51.28,51.28,0,0,0,8.8-11.7,39.71,39.71,0,0,0,3.4-6.4,12.09,12.09,0,0,1,2-3.4,58,58,0,0,0,3.4-8.3c1-2.4,2-5.4,2.9-7.8a94.18,94.18,0,0,0,3.4-12.7c1-4.4,1.5-9.3,2.4-13.7,0-1,0-2,.5-2.4a3,3,0,0,1,2.9-2.4l2.4-.5c4.4-.5,8.8-1,13.7-2l4.4-.5c-0.1-1.1.4-.6,1.4,0.3h0Zm-56.1,64.5v-1c0.5-2,1-3.4,1.5-5.4v-3.5c0-.5.5-1,0.5-1.5h0v-3c0-.5.5-0.5,0.5-1v-0.5a0.49,0.49,0,0,1,.5-0.5V141a1.84,1.84,0,0,0,.5-1.5V139a1.84,1.84,0,0,0,.5-1.5V137h0a1.84,1.84,0,0,0,.5-1.5v-1a3,3,0,0,0,.5-2V131a1.84,1.84,0,0,0,.5-1.5v-3a3,3,0,0,0,.5-2v-2a0.49,0.49,0,0,1,.5-0.5h0a0.49,0.49,0,0,1,.5-0.5h0a0.49,0.49,0,0,1,.5-0.5v-2h0v-0.5h-0.5v0h0V118h0v-1.5h0V116h0v-0.5h0l0.5-.5h0l0.5-.5h0l0.5-.5h0v-0.5h0V113h0v-1h0v-1h0a1.84,1.84,0,0,0,.5-1.5v-1h0V108h0v-5.5a0.49,0.49,0,0,1,.5-0.5h-0.5v-0.5h0v2c-0.5,0-.5.5-0.5,1h0.5V105h0v0h0.5v0.5h0V106c-1,1-1,2-1.5,3.4,0,0-.5.5,0,0.5h0v0.5h0v1c-0.5,0-.5.5-0.5,1l-2.9,6.4c0,0.5-.5,1-0.5,1.5v0.5c0,0.5-.5,1-0.5,1.5a80.47,80.47,0,0,0-3.9,10.3,7.18,7.18,0,0,0-1,2.9c-1,2-1.5,4.4-2.4,6.4-2,5.9-3.9,11.7-5.4,17.6a24.54,24.54,0,0,0-1,6.4v0.5h0v-0.5h0.5c0-.5.5-0.5,0.5-1C261.2,159,261.7,159,261.7,158.6Zm1,5.8c0.5-4.9,2-9.3,2.9-13.7,2.4-7.8,4.9-15.1,7.8-23,3.4-8.8,6.8-17.1,10.7-25.8,1-2.4,2-4.9,2.9-6.8s2-3.9,2.9-5.9V88.7a5.3,5.3,0,0,0,1-2.9c0.5,0,.5-0.5.5-1-0.5,0-.5.5-0.5,1a3.77,3.77,0,0,0-1,2.4c-0.5,0-.5.5-0.5,1-0.5.5-.5,1.5-1,2-0.5,1-1,2.4-1.5,3.4,0,0.5-.5.5-0.5,1a51.9,51.9,0,0,0-3.9,9.3c-2.9,7.3-6.4,15.1-9.3,23s-5.9,15.6-7.8,23.5a61.53,61.53,0,0,0-2.4,10.3c0,1-.5,2,0,3.4-0.8-.2-0.3-0.2-0.3-0.7h0Zm1.9-18.1h0Zm5.4-15.6v0h0Zm1.9-4.9v0.5h-0.5Zm2,30.3a1.75,1.75,0,0,0-.5,1C273.9,157.1,273.9,156.6,273.9,156.1Zm1-1.5h0l1-.5v-0.5l0.5-.5v-0.5h0c0.5,0,.5-0.5.5-1a1.75,1.75,0,0,0,.5-1v-1h0v-0.5h0c-0.5,0-.5.5-0.5,1-0.5,0-.5.5-0.5,1a2.6,2.6,0,0,0-1,2c0.4,0.1,0,1.1-.5,1.5a1.08,1.08,0,0,0-1,1A0.82,0.82,0,0,0,274.9,154.6Zm8.3-9.7c-0.5,0-.5.5-1,1.5v0.5c-0.5.5-.5,1-1,1.5l-2.9,4.9a8.9,8.9,0,0,1-2,2.9,2.65,2.65,0,0,0-1,1.5c-0.5,0-.5.5-0.5,1a1,1,0,0,0,.5-1c0.5,0,1-1,1-1.5,0.5,0,.5-0.5,1-1l2.4-4.4c0.5-1,1-1.5,1.5-2.4a1.84,1.84,0,0,0,.5-1.5,0.49,0.49,0,0,0,.5-0.5C282.7,145.8,282.7,145.4,283.2,144.9Zm-6.9,7.8h0Zm1.5-1.5h0Zm0.5-1.9h0Zm0.5-.5h0.5v-0.5h0v0C278.8,147.8,278.8,148.3,278.8,148.8Zm1.4-43.4h0v0.5h0v-0.5Zm2-4.4h0Zm0,0v-0.5h0.5l-0.5.5h0Zm2.4-5.9h0.5v-1C284.6,94.1,284.6,94.6,284.6,95.1Zm1-1.9h0c0.5,0,0-.5,0-0.5v0.5Zm0.5-1a1.75,1.75,0,0,0,.5-1h0V90.7h0v0.5C286.1,91.2,286.1,91.7,286.1,92.2Zm2-4.4h0Zm3.4-2.9c0.5,0,.5-0.5.5-1C292,84.4,291.5,84.4,291.5,84.9Zm0.5-1.5h0Zm0.5-.5c0.5,0,.5-1,0.5-1.5A8.8,8.8,0,0,0,292.5,82.9Zm2.4,14.2c-0.5,0-.5,0,0,0.5V97.1Zm1,1.4h0Z" transform="translate(-35.3 -0.3)"/></svg>